<svg viewBox="0 0 82 16" fill="none" xmlns="http://www.w3.org/2000/svg">
  <svg viewBox="-2 -2 204 204" x="0" y="1" width="14" height="14">
    <path d="M143.941 84.6963L112.387 110.697V118.533L100.261 113.923L66.9269 76.9219L10.9844 121.089L33.547 166.168L68.7222 189.492L121.622 191.165L166.595 170.915L190.147 124.36L143.941 84.6963Z" fill="#BCBEC0"/>
    <path d="M141.72 178.797L137.186 170.855C137.003 170.536 137.232 170.125 137.612 170.125H139.164C139.544 170.125 139.772 169.714 139.59 169.395L135.771 162.701C135.588 162.381 135.817 161.97 136.197 161.97H138.175C138.555 161.97 138.783 161.56 138.601 161.24L130.142 146.406C129.959 146.072 129.488 146.072 129.29 146.406L120.831 161.24C120.648 161.56 120.876 161.97 121.257 161.97H123.235C123.615 161.97 123.843 162.381 123.661 162.701L119.842 169.395C119.659 169.714 119.887 170.125 120.268 170.125H121.82C122.2 170.125 122.428 170.536 122.246 170.855L120.329 174.233C120.146 174.568 119.674 174.568 119.477 174.233L117.164 170.186C116.981 169.867 117.21 169.456 117.59 169.456H118.685C119.066 169.456 119.294 169.045 119.112 168.726L112.889 157.817C112.706 157.482 112.235 157.482 112.037 157.817L105.814 168.726C105.632 169.045 105.86 169.456 106.24 169.456H107.336C107.716 169.456 107.944 169.867 107.762 170.186L105.069 174.918C104.886 175.237 105.114 175.648 105.495 175.648H106.271C106.651 175.648 106.879 176.059 106.697 176.378L104.536 180.182C104.354 180.517 103.882 180.517 103.684 180.182L102.361 177.854C102.178 177.535 102.406 177.124 102.787 177.124H103.395C103.776 177.124 104.004 176.713 103.821 176.393L98.8158 167.63C98.6332 167.295 98.1615 167.295 97.9638 167.63L92.9583 176.393C92.7758 176.713 93.004 177.124 93.3843 177.124H93.9929C94.3732 177.124 94.6014 177.535 94.4189 177.854L92.3345 181.521C92.152 181.84 92.3802 182.251 92.7605 182.251H93.1104C93.4908 182.251 93.719 182.662 93.5364 182.981L90.9957 187.424C90.8131 187.743 91.0413 188.154 91.4217 188.154H105.358C105.738 188.154 105.966 187.743 105.784 187.424L103.563 183.529C103.38 183.209 103.608 182.799 103.989 182.799H121.089C121.47 182.799 121.698 182.388 121.515 182.068L120.496 180.273C120.313 179.954 120.542 179.543 120.922 179.543H141.37C141.659 179.528 141.902 179.117 141.72 178.797Z" fill="#3C6E71"/>
    <path d="M156.28 22.4853L91.8779 9.46191L33.8815 37.6994L8.53463 71.3989L7.68262 82.3227L12.0795 120.023L67.8699 74.8829L93.5819 105.935L103.365 115.368L141.065 86.5522L191.272 125.075V71.3989L156.28 22.4853Z" fill="#B5070F"/>
    <path d="M135.269 63.5942V90.2191C135.269 91.0863 134.569 91.7861 133.717 91.7861H114.684V110.819C114.684 111.686 113.984 112.386 113.117 112.386H100.794L84.9252 97.4915V91.7861H78.8547L64.3252 78.1542V63.5942C64.3252 62.7422 65.025 62.0424 65.8923 62.0424H84.9252V43.0094C84.9252 42.1422 85.6251 41.4424 86.4923 41.4424H113.117C113.984 41.4424 114.684 42.1422 114.684 43.0094V62.0424H133.717C134.569 62.0424 135.269 62.7422 135.269 63.5942Z" fill="white"/>
    <path d="M99.8355 0C44.7145 0 0 44.6536 0 99.7746C0 154.926 44.7145 199.61 99.8355 199.61C154.957 199.61 199.61 154.926 199.61 99.7746C199.61 44.6536 154.957 0 99.8355 0ZM99.8355 182.525C54.1169 182.525 17.1007 145.493 17.1007 99.8203C17.1007 54.1017 54.1321 17.116 99.8355 17.116C145.524 17.116 182.509 54.1169 182.509 99.8203C182.509 145.493 145.508 182.525 99.8355 182.525Z" fill="#003049"/>
    <path d="M181.748 155.855L165.028 172.469L68.1589 86.2652L68.0067 86.0217L67.9459 86.0522L12.8553 128.074L9.34082 114.99L60.0193 76.3912L65.4051 72.2985C66.9417 71.127 69.0869 71.127 70.6236 72.2985L105.784 99.0603C107.427 100.308 107.883 102.605 106.833 104.385L103.562 109.954L102.223 112.312L113.817 105.161L117.97 108.341L181.748 155.855Z" fill="#003049"/>
    <path d="M76.7861 87.4199L45.4753 113.68C44.6537 114.364 45.4753 115.657 46.449 115.201L88.7292 95.3617L76.7861 87.4199Z" fill="#003049"/>
    <path d="M197.48 121.377L192.247 137.23L142.998 89.275L117.971 108.338L105.054 118.167L100.262 113.937L140.382 82.0179C141.918 80.7855 144.109 80.7703 145.676 81.957L197.48 121.377Z" fill="#003049"/>
    <path d="M151.031 92.3652L137.368 106.134C136.897 106.621 137.445 107.397 138.053 107.108L156.964 98.2075L151.031 92.3652Z" fill="#003049"/>
    <path fill-rule="evenodd" clip-rule="evenodd" d="M81.2137 192.703L64.2347 190.071L27.3555 165.789C29.7745 165.363 31.509 165.09 32.2849 165.059C32.7717 165.029 33.502 165.211 34.3692 165.516C34.4301 165.516 34.4605 165.546 34.5213 165.576C35.069 165.759 35.6776 166.002 36.3014 166.276C36.3623 166.276 36.4231 166.307 36.484 166.337C37.1534 166.641 37.8837 166.946 38.5988 167.311C38.6596 167.311 38.69 167.341 38.7509 167.372C39.6029 167.767 40.5005 168.193 41.4134 168.619C42.1437 168.954 42.8892 169.319 43.6194 169.654C43.7412 169.715 43.8629 169.745 44.015 169.806C44.7453 170.141 45.4451 170.445 46.1298 170.749C46.2211 170.78 46.3123 170.81 46.3732 170.841C47.1035 171.145 47.7729 171.388 48.4271 171.601C48.5792 171.632 48.701 171.693 48.8227 171.723C49.4617 171.936 50.0702 172.088 50.6027 172.179C50.694 172.179 50.7853 172.21 50.8766 172.21C51.4243 172.301 51.9416 172.332 52.3372 172.24C52.5197 172.21 52.7936 172.149 53.0979 172.088C53.1587 172.088 53.2196 172.088 53.2804 172.058C53.6151 171.997 53.9803 171.906 54.4063 171.845C54.4367 171.814 54.4671 171.814 54.4671 171.814C54.8931 171.723 55.38 171.632 55.8973 171.51C55.9581 171.51 56.019 171.48 56.0799 171.48C56.5971 171.358 57.1753 171.236 57.7686 171.084C57.8904 171.054 58.0121 171.054 58.1338 171.023C58.6206 170.901 59.1683 170.78 59.6704 170.658C60.0356 170.597 60.4007 170.506 60.7658 170.445C61.344 170.293 61.9525 170.171 62.5763 170.019C63.2153 169.897 63.8543 169.745 64.4781 169.593C64.6606 169.563 64.8128 169.532 64.9954 169.502C65.7257 169.319 66.4712 169.167 67.2319 168.984C67.4144 168.954 67.597 168.924 67.81 168.863C68.6012 168.68 69.4075 168.498 70.2291 168.345C70.2899 168.315 70.3812 168.285 70.4725 168.285C71.2636 168.102 72.07 167.919 72.8915 167.737C72.9828 167.737 73.0741 167.706 73.1654 167.676C74.0478 167.493 74.8846 167.311 75.7366 167.128C75.8583 167.098 75.9496 167.067 76.0713 167.067C76.8929 166.885 77.6992 166.702 78.4904 166.55C78.5512 166.52 78.5816 166.52 78.6425 166.52C79.4945 166.337 80.3008 166.155 81.092 166.002C81.2137 165.972 81.305 165.942 81.4267 165.911C82.9937 165.607 84.5152 165.303 85.8997 165.029C86.0214 164.998 86.1127 164.968 86.2344 164.968C86.9342 164.816 87.5732 164.694 88.1666 164.603C88.197 164.572 88.197 164.572 88.197 164.572C91.1029 164.055 93.1568 163.751 93.7654 163.872C95.9563 164.268 85.1542 183.833 81.2137 192.703Z" fill="#003049"/>
    <path d="M84.0274 112.888C84.0274 112.888 85.2902 109.115 82.0191 108.583C79.2349 108.248 77.0745 109.648 77.3636 111.717C77.6527 113.755 78.2004 114.181 76.968 114.562C76.7094 114.638 75.3705 114.501 75.4162 112.614C75.4922 111.108 77.5157 107.746 80.9237 107.959C84.3317 108.172 86.7051 108.354 85.9444 111.58C85.1837 114.805 84.1795 113.953 84.0274 112.888Z" fill="#003049"/>
    <path d="M83.7233 112.493C83.7233 112.493 84.1036 114.304 82.9169 114.441C82.4453 114.456 82.2019 113.634 81.502 113.832C81.3347 113.938 81.6998 114.41 82.141 114.638C82.6431 114.897 82.2019 115.582 81.1521 115.323C80.3609 115.14 79.8589 114.988 79.9654 114.532C80.1175 114.212 80.437 114.182 80.8478 114.136C81.5628 114.045 80.8934 113.482 80.3457 113.649C79.9045 113.786 79.1438 114.319 78.5505 113.878C77.9419 113.452 78.1092 112.021 78.1092 112.021C78.1092 112.021 77.8506 111.398 77.6528 112.311C77.4551 113.223 76.8921 119.811 81.0608 120.055C83.7689 120.131 85.6251 113.497 83.7233 112.493Z" fill="#003049"/>
    <path d="M80.7416 106.194C82.6282 105.844 83.2671 107.579 83.2671 107.639V107.944C80.4068 107.198 77.79 109.07 77.79 109.07C77.79 109.07 78.855 106.544 80.7416 106.194Z" fill="#003049"/>
    <path d="M83.8145 132.713C84.7121 132.226 85.2598 131.861 85.7923 131.967C86.9942 132.196 90.8434 132.196 90.6152 128.666C90.6152 128.666 90.5543 126.947 88.7134 127.768C86.8877 128.605 86.5226 129.837 85.2141 129.837C85.1076 129.837 84.9707 129.853 84.8186 129.868C84.7882 130.339 84.6817 130.765 84.4839 131.1C84.1796 131.633 83.9666 132.18 83.8145 132.713Z" fill="#003049"/>
    <path d="M89.8403 128.087C89.8403 128.087 92.1072 127.266 92.7918 126.581C93.4765 125.896 94.298 124.603 95.1196 126.201C95.9412 127.798 93.8568 130.035 92.8983 130.019C91.9398 130.004 88.9883 130.461 88.9883 130.461L89.8403 128.087Z" fill="#003049"/>
    <path d="M88.9861 129.96L81.2725 170.371L82.3037 170.568L90.0173 130.157L88.9861 129.96Z" fill="#003049"/>
    <path d="M94.6312 126.902L94.4791 129.001L91.497 168.224H90.4473L93.3684 129.899L93.5966 126.811L94.6312 126.902Z" fill="#003049"/>
    <path d="M84.8491 129.867C83.0995 130.111 78.5809 131.434 78.0788 127.813C77.9723 126.885 78.7178 123.751 78.5656 121.515L79.2047 118.73H82.9017C82.9017 118.746 86.6292 123.782 84.8491 129.867Z" fill="#003049"/>
    <path d="M83.815 132.713C82.7348 133.291 81.1373 134.036 78.4444 134.341C73.9714 134.675 72.2218 131.344 71.8262 127.829C71.8262 127.829 71.7654 132.378 71.7197 135.664C76.2231 137.612 81.2286 136.258 83.5412 135.406C83.5108 134.615 83.5564 133.671 83.815 132.713Z" fill="#003049"/>
    <path d="M70.168 137.095C70.2136 137.825 71.8872 138.707 72.0241 138.951C72.7544 140.32 80.3158 140.32 82.3697 139.651C84.4389 138.981 83.8607 137.292 83.8607 137.292C83.8607 137.292 83.8455 137.216 83.7999 137.095C80.2702 139.499 72.3892 137.962 70.168 137.095Z" fill="#003049"/>
    <path d="M78.7181 118.093C78.7181 118.093 70.898 110.972 66.5315 114.107C62.1803 117.241 64.4624 119.264 64.0668 122.094C63.6713 124.924 63.3366 129.747 63.1083 133.444C62.8193 137.841 70.7002 142.907 71.7348 135.665C72.7085 128.758 70.259 117.986 76.8924 118.747C83.5106 119.538 78.7181 118.093 78.7181 118.093Z" fill="#003049"/>
    <path d="M83.2064 138.296L78.2769 139.224L73.5606 138.889L70.8372 137.702C70.8372 137.702 71.5066 141.764 70.5025 143.97C69.4984 146.161 69.4375 159.793 69.4375 159.793L72.2825 169.865L77.0902 168.754L74.8386 160.66L79.844 144.031L79.0985 148.459C78.779 150.315 80.2244 151.958 81.335 153.479C81.8979 154.24 81.3502 155.183 81.2741 155.305C81.0764 155.579 78.8247 170.261 78.8247 170.261H82.0805C82.0805 170.261 89.003 154.133 89.6115 151.943C90.2049 149.721 83.2064 138.296 83.2064 138.296Z" fill="#003049"/>
    <path d="M79.1291 110.105C80.4832 110.075 80.8635 111.398 81.959 110.577C83.0239 109.983 84.5606 110.455 84.5606 110.455L84.591 111.642C82.8566 113.239 82.4914 111.261 80.5592 111.657C78.6727 112.661 77.2121 111.946 77.1817 111.231C77.136 110.638 77.3795 110.166 79.1291 110.105Z" fill="#003049"/>
    <path d="M80.3458 119.63L80.011 118.747L78.5657 118.215L76.7552 117.895L74.4883 117.743L75.325 118.808C75.325 118.808 78.6418 118.55 78.5809 121.699C79.6915 123.966 81 121.851 81 121.851L80.3458 119.63Z" fill="#003049"/>
  </svg>
  <text x="18" y="11" font-family="system-ui, -apple-system, sans-serif" font-size="8" font-weight="600" fill="currentColor">Design System</text>
</svg>
